<svg width="84" height="75" fill="none" xmlns="http://www.w3.org/2000/svg"><g clip-path="url(#a)"><g clip-path="url(#b)"><g clip-path="url(#c)"><mask id="d" style="mask-type:luminance" maskUnits="userSpaceOnUse" x="0" y="0" width="84" height="75"><path d="M83.94.15H.765v73.98h83.177V.15Z" fill="#fff"/></mask><g mask="url(#d)"><path d="M69.88 14.717H14.548V74.1h55.33V14.717Z" fill="url(#e)"/><path d="M14.32 14.717c.067 0 .134.028.229.057v59.299c-4.283.334-7.899-.744-10.77-3.51C1.747 68.596.764 66.287.764 63.673v-27.75c0-3.53-.01-7.06-.01-10.59 0-4.264 2.3-7.364 6.526-9.463 2.175-1.068 4.588-1.23 7.04-1.154Z" fill="url(#f)"/><path d="M60.215 14.707h5.18v59.375H19.034V14.726h5.504v-.62c0-2.127.01-4.264-.01-6.391-.019-1.489.382-2.786 1.546-3.797.82-.706 1.765-1.069 2.833-1.069 3.31-.01 6.611-.01 9.922-.01 5.561 0 11.132.01 16.694 0 1.46 0 2.671.478 3.625 1.584.763.888 1.05 1.927 1.05 3.091-.01 2.242 0 4.484 0 6.726-.01.124 0 .267.018.467Zm-29.706 0h8.481c4.922 0 9.854 0 14.777.01.39 0 .477-.124.477-.496-.02-1.67 0-3.34 0-5.009 0-.133-.02-.267-.038-.41H30.509v5.905Z" fill="#fff"/><mask id="g" style="mask-type:alpha" maskUnits="userSpaceOnUse" x="19" y="2" width="47" height="73"><path d="M60.215 14.707h5.18v59.375H19.034V14.726h5.504v-.62c0-2.127.01-4.264-.01-6.391-.019-1.489.382-2.786 1.546-3.797.82-.706 1.765-1.069 2.833-1.069 3.31-.01 6.611-.01 9.922-.01 5.561 0 11.132.01 16.694 0 1.46 0 2.671.478 3.625 1.584.763.888 1.05 1.927 1.05 3.091-.01 2.242 0 4.484 0 6.726-.01.124 0 .267.018.467Zm-29.706 0h8.481c4.922 0 9.854 0 14.777.01.39 0 .477-.124.477-.496-.02-1.67 0-3.34 0-5.009 0-.133-.02-.267-.038-.41H30.509v5.905Z" fill="#F7F9FC"/></mask><g mask="url(#g)"><path d="M61.167.15H22.598v14.576h38.57V.15Z" fill="url(#h)"/></g><path d="M83.94 25.182c0-3.93-2.146-6.86-5.962-8.987-2.346-1.306-5.008-1.555-7.736-1.497-.42.01-.363.229-.363.458v20.596c0 12.068 0 24.126-.01 36.193v2.147c1.718.057 3.35.067 4.952-.315 5.418-1.278 9.11-5.314 9.11-10.074.02-12.83.01-25.68.01-38.521Z" fill="url(#i)"/><path d="M46.736 48.793v7.536c0 .792-.4 1.211-1.183 1.211-2.156.01-4.312.01-6.468 0-.715 0-1.116-.448-1.116-1.202V48.793H30.518c-.925 0-1.306-.373-1.306-1.298v-6.153c0-.935.372-1.307 1.297-1.307H37.959v-7.498c0-.878.392-1.26 1.27-1.26h6.152c.964 0 1.336.363 1.336 1.346.01 2.346 0 4.684 0 7.03v.392h.41c2.366 0 4.732 0 7.098.01.868 0 1.24.38 1.24 1.249v6.182c0 .944-.363 1.307-1.288 1.307-2.356 0-4.713 0-7.06.009-.095-.01-.21-.01-.381-.01Z" fill="url(#j)"/></g></g></g></g><defs><linearGradient id="e" x1="14.55" y1="44.406" x2="69.877" y2="44.406" gradientUnits="userSpaceOnUse"><stop stop-color="#B0F4FF"/><stop offset="1" stop-color="#69DCFC"/></linearGradient><linearGradient id="f" x1=".764" y1="44.415" x2="14.55" y2="44.415" gradientUnits="userSpaceOnUse"><stop stop-color="#6CBCFC"/><stop offset="1" stop-color="#458DFC"/></linearGradient><linearGradient id="h" x1="22.594" y1="7.436" x2="61.165" y2="7.436" gradientUnits="userSpaceOnUse"><stop stop-color="#6CBCFC"/><stop offset="1" stop-color="#458DFC"/></linearGradient><linearGradient id="i" x1="69.872" y1="44.409" x2="83.942" y2="44.409" gradientUnits="userSpaceOnUse"><stop stop-color="#6CBCFC"/><stop offset="1" stop-color="#458DFC"/></linearGradient><linearGradient id="j" x1="29.217" y1="44.419" x2="55.484" y2="44.419" gradientUnits="userSpaceOnUse"><stop stop-color="#6CBCFC"/><stop offset="1" stop-color="#458DFC"/></linearGradient><clipPath id="a"><path fill="#fff" d="M0 0h84v75H0z"/></clipPath><clipPath id="b"><path fill="#fff" d="M0 0h84v75H0z"/></clipPath><clipPath id="c"><path fill="#fff" transform="translate(.06)" d="M0 0h83.882v75H0z"/></clipPath></defs></svg>