<svg width="71" height="99" fill="none" xmlns="http://www.w3.org/2000/svg"><g clip-path="url(#a)"><g clip-path="url(#b)"><g clip-path="url(#c)"><mask id="d" style="mask-type:luminance" maskUnits="userSpaceOnUse" x="0" y="0" width="71" height="99"><path d="M70.226.942H.956v97.085h69.27V.942Z" fill="#fff"/></mask><g mask="url(#d)"><path d="M70.226 93.376c0 2.533-2.073 4.592-4.632 4.592l-59.903.067a4.638 4.638 0 0 1-4.392-3.1 4.444 4.444 0 0 1-.249-1.475L.956 7.975c0-2.534 2.072-4.593 4.633-4.593l55.004-.06 4.898-.008c2.56 0 4.64 2.051 4.64 4.584l.095 85.478Z" fill="url(#e)"/><path d="m64.018 92.884-56.76.06c-1.378 0-2.491-1.102-2.491-2.466L4.68 10.923c0-1.364 1.113-2.466 2.492-2.466l56.75-.059c1.38 0 2.492 1.102 2.492 2.466l.086 79.554c.009 1.356-1.105 2.466-2.483 2.466Z" fill="#fff"/><path d="m56.046 14.956-41.398.051c-1.37 0-2.492-1.101-2.492-2.457l-.009-6.83a2.48 2.48 0 0 1 2.483-2.465l41.408-.042c1.37 0 2.492 1.101 2.492 2.457l.008 6.83a2.485 2.485 0 0 1-2.492 2.456ZM14.63 4.51c-.668 0-1.216.542-1.216 1.203l.01 6.83c0 .66.547 1.203 1.215 1.203l41.407-.043c.668 0 1.216-.542 1.216-1.203l-.008-6.83c0-.66-.548-1.202-1.216-1.202l-41.408.042Z" fill="url(#f)"/><path d="m54.873 6.17-38.659.042a.763.763 0 0 1-.77-.762V1.747c0-.424.342-.763.77-.763l38.65-.042c.429 0 .771.339.771.762v3.703a.75.75 0 0 1-.762.763Z" fill="url(#g)"/><path d="m16.249 6.212 38.59-.042a.8.8 0 0 0 .805-.797V3.56l-40.209.042v1.814c0 .44.368.796.814.796ZM29.811 83.936 26.472 63.94l-2.706 8.702-7.74.008a.84.84 0 1 1 0-1.678l6.499-.008 4.46-14.328 3.34 20.047 4.333-13.769 2.303 6.525 5.189-12.447 5.043 19.742 1.9-6.278 5.566-.009a.84.84 0 0 1 .848.839.84.84 0 0 1-.848.839l-4.306.008-3.297 10.888-5.292-20.708-4.94 11.837-2.08-5.889-4.933 15.675Z" fill="#58D6F4"/><path d="m24.075 45.383-10.883.009c-1.755 0-3.194-1.415-3.194-3.152l-.017-15.057c0-1.737 1.43-3.16 3.185-3.16l10.883-.009c1.755 0 3.194 1.415 3.194 3.152l.017 15.057c0 1.737-1.43 3.152-3.185 3.16ZM13.158 24.938a2.254 2.254 0 0 0-2.26 2.245l.016 15.057c0 1.237 1.02 2.237 2.27 2.237l10.882-.009c1.25 0 2.26-1.008 2.26-2.245l-.017-15.057c0-1.237-1.018-2.237-2.269-2.237l-10.882.009Z" fill="url(#h)"/><path d="M18.62 42.494c5.146-.008 6.747-2.949 6.747-2.949a3.722 3.722 0 0 0-.916-.796c-1.352-.873-2.44-1.245-2.894-1.618a2.884 2.884 0 0 1-.719-.898l-.283.169s-.17-.585-.076-1.474c0 0 .402-.102.702-1.45.479.094 1.044-1.11.779-1.55-.172-.288-.377-.262-.523-.195.146-.601.805-3.931-2.825-3.931-3.63 0-2.971 3.33-2.817 3.931-.146-.067-.351-.093-.522.195-.266.44.308 1.644.787 1.55.3 1.348.711 1.441.711 1.441.103.881-.077 1.475-.077 1.475l-.283-.17s-.257.525-.719.898c-.462.373-1.541.754-2.894 1.627-.394.254-.694.508-.916.796-.009.017 1.601 2.958 6.738 2.95Z" fill="url(#i)"/><path d="m52.51 28.819-20.952.025a.705.705 0 0 1-.71-.703v-.119c0-.39.316-.703.71-.703l20.952-.025c.394 0 .71.313.71.703v.118a.71.71 0 0 1-.71.704Z" fill="url(#j)"/><path d="m44.804 32.767-13.246.017a.705.705 0 0 1-.71-.703v-.119c0-.39.316-.703.71-.703l13.246-.017c.394 0 .71.313.71.703v.119c0 .39-.316.703-.71.703Z" fill="url(#k)"/><path opacity=".6" d="m59.737 37.461-28.17.034a.705.705 0 0 1-.711-.703v-.119c0-.39.317-.703.71-.703l28.17-.034c.395 0 .711.313.711.703v.119a.716.716 0 0 1-.71.703Z" fill="url(#l)"/><path opacity=".6" d="m59.129 50.654-46.99.05a.733.733 0 0 1-.737-.728v-.068c0-.398.326-.729.737-.729l46.99-.05c.402 0 .736.322.736.728v.068a.732.732 0 0 1-.736.729Z" fill="url(#m)"/><path opacity=".6" d="m59.737 42.07-28.17.035a.705.705 0 0 1-.711-.704v-.118c0-.39.317-.704.71-.704l28.17-.034c.395 0 .711.314.711.704v.118c0 .39-.316.704-.71.704Z" fill="url(#n)"/></g></g></g></g><defs><linearGradient id="e" x1="-8.636" y1="36.453" x2="79.64" y2="65.437" gradientUnits="userSpaceOnUse"><stop stop-color="#6CBCFC"/><stop offset=".171" stop-color="#5EABFC"/><stop offset=".408" stop-color="#509AFC"/><stop offset=".67" stop-color="#4890FC"/><stop offset="1" stop-color="#458DFC"/></linearGradient><linearGradient id="f" x1="-4.44" y1="-20.902" x2="58.281" y2="9.62" gradientUnits="userSpaceOnUse"><stop stop-color="#CFE9FF"/><stop offset="1" stop-color="#A1D6FB"/></linearGradient><linearGradient id="g" x1="15.434" y1="3.578" x2="55.643" y2="3.578" gradientUnits="userSpaceOnUse"><stop stop-color="#B0F4FF"/><stop offset="1" stop-color="#69DCFC"/></linearGradient><linearGradient id="h" x1="15.554" y1="30.791" x2="25.522" y2="43.795" gradientUnits="userSpaceOnUse"><stop stop-color="#6CBCFC"/><stop offset="1" stop-color="#458DFC"/></linearGradient><linearGradient id="i" x1="14.458" y1="31.63" x2="24.427" y2="44.635" gradientUnits="userSpaceOnUse"><stop stop-color="#B0F4FF"/><stop offset=".099" stop-color="#A1EFFE"/><stop offset=".299" stop-color="#88E7FD"/><stop offset=".509" stop-color="#77E1FD"/><stop offset=".734" stop-color="#6CDDFC"/><stop offset="1" stop-color="#69DCFC"/></linearGradient><linearGradient id="j" x1="30.849" y1="28.076" x2="53.216" y2="28.089" gradientUnits="userSpaceOnUse"><stop stop-color="#6CBCFC"/><stop offset="1" stop-color="#458DFC"/></linearGradient><linearGradient id="k" x1="30.853" y1="32.013" x2="45.514" y2="32.013" gradientUnits="userSpaceOnUse"><stop stop-color="#6CBCFC"/><stop offset="1" stop-color="#458DFC"/></linearGradient><linearGradient id="l" x1="30.858" y1="36.72" x2="60.443" y2="36.72" gradientUnits="userSpaceOnUse"><stop stop-color="#6CBCFC"/><stop offset="1" stop-color="#458DFC"/></linearGradient><linearGradient id="m" x1="11.402" y1="49.921" x2="59.863" y2="49.921" gradientUnits="userSpaceOnUse"><stop stop-color="#6CBCFC"/><stop offset="1" stop-color="#458DFC"/></linearGradient><linearGradient id="n" x1="30.862" y1="41.329" x2="60.447" y2="41.329" gradientUnits="userSpaceOnUse"><stop stop-color="#6CBCFC"/><stop offset="1" stop-color="#458DFC"/></linearGradient><clipPath id="a"><path fill="#fff" d="M0 0h71v99H0z"/></clipPath><clipPath id="b"><path fill="#fff" d="M0 0h71v99H0z"/></clipPath><clipPath id="c"><path fill="#fff" transform="translate(.213)" d="M0 0h70.574v99H0z"/></clipPath></defs></svg>