<svg width="67" height="91" fill="none" xmlns="http://www.w3.org/2000/svg"><g clip-path="url(#a)"><g clip-path="url(#b)"><g clip-path="url(#c)"><mask id="d" style="mask-type:luminance" maskUnits="userSpaceOnUse" x="0" y="0" width="67" height="91"><path d="M66.34.722H.17v89.901H66.34V.722Z" fill="#fff"/></mask><g mask="url(#d)"><path d="m66.34 28.73-.205 42.095-.034 8.142c-.034 6.47-6.253 11.69-13.907 11.656l-38.237-.169C6.319 90.404.135 85.134.169 78.647l.239-50.238c.017-5.237 4.117-9.663 9.722-11.132l.016-2.703v-1.385l46.592.22-.017 4.087c5.587 1.537 9.637 5.98 9.62 11.234Z" fill="url(#e)"/><path d="M60.207 2.597v.372l-.034 4.392-.035 4.307v.524c0 .81-.683 1.47-1.503 1.47h-.359l-2.255-.017-2.477-.017-2.256-.017-2.477-.017-2.29-.034-2.477-.017-2.255-.017-2.495-.016-2.272-.017-2.477-.017-2.256-.034-2.477-.017-2.255-.017-2.495-.017-2.272-.017-2.46-.017-2.256-.016-2.477-.017-2.272-.017-2.478-.017-2.272-.017h-.36c-.82 0-1.486-.676-1.486-1.486v-.389l.069-8.683v-.523c0-.811.683-1.47 1.52-1.47h.36l4.749.034 4.75.034 2.272.017 2.477.016 2.256.017 4.732.051 2.478.017 2.255.017 2.477.017 2.256.017 2.477.016 2.255.017 2.478.017 2.255.017 2.512.034 2.255.017 2.477.017 2.273.017h.358c.838.016 1.487.675 1.487 1.486Z" fill="url(#f)"/><path d="m60.207 2.986-.034 4.375-.035 4.307-2.033-.017-2.7-.017-2.477-.016h-2.716l-2.478-.017-2.699-.017-2.477-.017H39.84l-2.477-.017-2.717-.017-2.46-.017H29.47l-2.477-.017-2.717-.017-2.477-.016h-2.7l-2.477-.017-2.717-.017-2.477-.017h-2.7l-1.999-.017.069-8.683 4.75.017 5.176.034 2.478.017 2.716.017h2.478l5.177.034 2.716.016h2.478l2.716.017 2.46.017 2.717.017h2.478l2.716.017 2.46.017 2.717.017h2.477l2.717.017 1.982.017Z" fill="url(#g)"/><path d="M66.29 37.618.358 37.309.22 66.212l65.932.308.138-28.902Z" fill="#F7F9FC"/><path d="M66.302 37.617.369 37.31l-.024 5.203 65.932.308.025-5.203Z" fill="#FBFCF7"/><path d="m26.07 48.93-4.254-.016.017-4.223-5.86-.017-.017 4.206-4.255-.017-.034 5.777 4.254.017-.017 4.223 5.86.017.018-4.206 4.254.017.034-5.777Z" fill="url(#h)"/><path d="m54.979 50.333-21.084-.102a1.022 1.022 0 0 1-1.025-1.013v-.473c0-.558.462-1.014 1.025-1.014l21.084.102c.563 0 1.025.456 1.025 1.013v.473c0 .558-.462 1.014-1.025 1.014Z" fill="url(#i)"/><path opacity=".5" d="m54.962 56.532-21.084-.101a1.022 1.022 0 0 1-1.025-1.014v-.473c0-.557.461-1.013 1.025-1.013l21.084.101c.563 0 1.025.456 1.025 1.014v.473c0 .557-.462 1.013-1.025 1.013Z" fill="url(#j)"/><path opacity=".08" d="M6.73 2.597v.372l.034 4.392.034 4.29v.524c0 .81.683 1.47 1.503 1.47h.36l2.271-.017 2.478-.017 2.255-.017 2.478-.017 2.255-.017 2.477-.017 2.256-.017 2.477-.017 2.272-.016 2.478-.017 2.255-.017 2.477-.017 2.255-.017 2.478-.017 2.272-.017 2.478-.017 2.255-.017 2.477-.016 2.256-.017 2.477-.017 2.272-.017h.36c.82 0 1.486-.676 1.486-1.487v-.388C33.724 12.547 8.216 1.11 8.216 1.11c-.82.017-1.487.676-1.487 1.487Z" fill="#1A6FB5"/></g></g></g></g><defs><linearGradient id="e" x1=".169" y1="12.709" x2="60.385" y2="96.767" gradientUnits="userSpaceOnUse"><stop stop-color="#6CBCFC"/><stop offset="1" stop-color="#458DFC"/></linearGradient><linearGradient id="f" x1="-673.698" y1="-41.511" x2="-29.432" y2="3.876" gradientUnits="userSpaceOnUse"><stop stop-color="#B0F4FF"/><stop offset=".053" stop-color="#A9F2FF"/><stop offset=".288" stop-color="#8DE8FE"/><stop offset=".525" stop-color="#79E1FD"/><stop offset=".762" stop-color="#6DDDFC"/><stop offset="1" stop-color="#69DCFC"/></linearGradient><linearGradient id="g" x1="6.737" y1="7.188" x2="60.209" y2="7.188" gradientUnits="userSpaceOnUse"><stop stop-color="#B0F4FF"/><stop offset=".053" stop-color="#A9F2FF"/><stop offset=".288" stop-color="#8DE8FE"/><stop offset=".525" stop-color="#79E1FD"/><stop offset=".762" stop-color="#6DDDFC"/><stop offset="1" stop-color="#69DCFC"/></linearGradient><linearGradient id="h" x1="23.68" y1="46.302" x2="13.775" y2="57.855" gradientUnits="userSpaceOnUse"><stop stop-color="#6CBCFC"/><stop offset="1" stop-color="#458DFC"/></linearGradient><linearGradient id="i" x1="56.207" y1="49.026" x2="31.07" y2="49.026" gradientUnits="userSpaceOnUse"><stop stop-color="#6CBCFC"/><stop offset="1" stop-color="#458DFC"/></linearGradient><linearGradient id="j" x1="32.852" y1="55.225" x2="55.987" y2="55.225" gradientUnits="userSpaceOnUse"><stop stop-color="#6CBCFC"/><stop offset="1" stop-color="#458DFC"/></linearGradient><clipPath id="a"><path fill="#fff" d="M0 0h67v91H0z"/></clipPath><clipPath id="b"><path fill="#fff" d="M0 0h67v91H0z"/></clipPath><clipPath id="c"><path fill="#fff" transform="translate(0 .177)" d="M0 0h67v90.647H0z"/></clipPath></defs></svg>