<svg width="75" height="102" fill="none" xmlns="http://www.w3.org/2000/svg"><g clip-path="url(#a)"><g clip-path="url(#b)"><g clip-path="url(#c)"><mask id="d" style="mask-type:luminance" maskUnits="userSpaceOnUse" x="0" y="0" width="75" height="102"><path d="M74.406.947H.483v100.28h73.923V.947Z" fill="#fff"/></mask><g mask="url(#d)"><path d="M74.406 5.497v91.197c0 2.517-2.05 4.55-4.59 4.55H5.074c-2.539-.017-4.59-2.05-4.59-4.55V5.497c0-2.516 2.051-4.55 4.59-4.55h64.76c2.522 0 4.573 2.034 4.573 4.55Z" fill="url(#e)"/><path d="M69.697 9.335v83.503c0 2.305-1.802 4.166-4.033 4.166H8.775c-2.23-.015-4.033-1.877-4.033-4.166V9.335c0-2.304 1.803-4.166 4.033-4.166H65.68c2.216 0 4.018 1.862 4.018 4.166Z" fill="url(#f)"/><path d="M29.097 20.213v4.15c0 .3-.235.533-.538.533h-5.128a.529.529 0 0 0-.538.534v5.083c0 .3-.235.533-.538.533H18.17a.529.529 0 0 1-.538-.533V25.43c0-.3-.235-.534-.538-.534h-5.111a.529.529 0 0 1-.538-.533v-4.15c0-.3.236-.533.538-.533h5.128a.529.529 0 0 0 .538-.534v-5.083c0-.3.235-.533.538-.533h4.186c.303 0 .538.233.538.533v5.083c0 .3.235.534.538.534h5.111c.303 0 .538.233.538.533Z" fill="url(#g)"/><path opacity=".5" d="M62.856 42.829H12.033a.6.6 0 0 1-.605-.6v-1.917a.6.6 0 0 1 .605-.6h50.823a.6.6 0 0 1 .606.6v1.917c-.017.333-.27.6-.606.6Z" fill="url(#h)"/><path d="M62.856 18.947H37.638a.6.6 0 0 1-.605-.6v-1.9a.6.6 0 0 1 .605-.6h25.218a.6.6 0 0 1 .606.6v1.916a.608.608 0 0 1-.606.584Z" fill="url(#i)"/><path opacity=".5" d="M55.392 27.046H37.638a.6.6 0 0 1-.605-.6V24.53a.6.6 0 0 1 .605-.6h17.754a.6.6 0 0 1 .605.6v1.916c-.017.334-.269.6-.605.6Z" fill="url(#j)"/><path opacity=".5" d="M62.856 51.928H12.033a.6.6 0 0 1-.605-.6v-1.916a.6.6 0 0 1 .605-.6h50.823a.6.6 0 0 1 .606.6v1.917c-.017.333-.27.6-.606.6Z" fill="url(#k)"/><path opacity=".5" d="M62.856 61.028H12.033a.6.6 0 0 1-.605-.6v-1.916a.6.6 0 0 1 .605-.6h50.823a.6.6 0 0 1 .606.6v1.933a.608.608 0 0 1-.606.583Z" fill="url(#l)"/><path opacity=".5" d="M62.856 70.145H12.033a.6.6 0 0 1-.605-.6v-1.917a.6.6 0 0 1 .605-.6h50.823a.6.6 0 0 1 .606.6v1.917c-.017.333-.27.6-.606.6Z" fill="url(#m)"/><path opacity=".5" d="M62.856 79.244H12.033a.6.6 0 0 1-.605-.6v-1.916a.6.6 0 0 1 .605-.6h50.823a.6.6 0 0 1 .606.6v1.916c-.017.334-.27.6-.606.6Z" fill="url(#n)"/><path opacity=".5" d="M62.856 88.344H12.033a.6.6 0 0 1-.605-.6v-1.917a.6.6 0 0 1 .605-.6h50.823a.6.6 0 0 1 .606.6v1.917c-.017.333-.27.6-.606.6Z" fill="url(#o)"/><path opacity=".1" d="M74.406 5.497v91.197c0 2.517-2.05 4.55-4.59 4.55H5.074c-2.539-.017-4.59-2.05-4.59-4.55V95.11C39.975 78.944 58.368 16.947 62.52.947h7.297c2.538 0 4.59 2.034 4.59 4.55Z" fill="#1A6FB5" fill-opacity=".4"/></g></g></g></g><defs><linearGradient id="e" x1="101.642" y1="133.949" x2="-4.727" y2="-5.756" gradientUnits="userSpaceOnUse"><stop offset=".306" stop-color="#5BA7FC"/><stop offset="1" stop-color="#69B8FC"/></linearGradient><linearGradient id="f" x1="9.666" y1="8.384" x2="61.561" y2="83.74" gradientUnits="userSpaceOnUse"><stop offset=".306" stop-color="#fff"/><stop offset="1" stop-color="#fff"/></linearGradient><linearGradient id="g" x1="11.131" y1="10.975" x2="26.901" y2="36.959" gradientUnits="userSpaceOnUse"><stop stop-color="#B0F4FF"/><stop offset=".369" stop-color="#80E4FD"/><stop offset="1" stop-color="#6CDDFC"/></linearGradient><linearGradient id="h" x1="11.441" y1="41.278" x2="63.453" y2="41.278" gradientUnits="userSpaceOnUse"><stop stop-color="#6CBCFC"/><stop offset="1" stop-color="#458DFC"/></linearGradient><linearGradient id="i" x1="37.033" y1="17.398" x2="63.453" y2="17.398" gradientUnits="userSpaceOnUse"><stop stop-color="#6CBCFC"/><stop offset="1" stop-color="#458DFC"/></linearGradient><linearGradient id="j" x1="37.033" y1="25.502" x2="55.988" y2="25.502" gradientUnits="userSpaceOnUse"><stop stop-color="#6CBCFC"/><stop offset="1" stop-color="#458DFC"/></linearGradient><linearGradient id="k" x1="11.441" y1="50.381" x2="63.453" y2="50.381" gradientUnits="userSpaceOnUse"><stop stop-color="#6CBCFC"/><stop offset="1" stop-color="#458DFC"/></linearGradient><linearGradient id="l" x1="11.441" y1="59.485" x2="63.453" y2="59.485" gradientUnits="userSpaceOnUse"><stop stop-color="#6CBCFC"/><stop offset="1" stop-color="#458DFC"/></linearGradient><linearGradient id="m" x1="11.441" y1="68.589" x2="63.453" y2="68.589" gradientUnits="userSpaceOnUse"><stop stop-color="#6CBCFC"/><stop offset="1" stop-color="#458DFC"/></linearGradient><linearGradient id="n" x1="11.441" y1="77.693" x2="63.453" y2="77.693" gradientUnits="userSpaceOnUse"><stop stop-color="#6CBCFC"/><stop offset="1" stop-color="#458DFC"/></linearGradient><linearGradient id="o" x1="11.441" y1="86.797" x2="63.453" y2="86.797" gradientUnits="userSpaceOnUse"><stop stop-color="#6CBCFC"/><stop offset="1" stop-color="#458DFC"/></linearGradient><clipPath id="a"><path fill="#fff" d="M0 0h75v102H0z"/></clipPath><clipPath id="b"><path fill="#fff" d="M0 0h75v102H0z"/></clipPath><clipPath id="c"><path fill="#fff" transform="translate(.23)" d="M0 0h74.538v102H0z"/></clipPath></defs></svg>